/* XPM */
static char *o1lxoxz4[] = {
/* columns rows colors chars-per-pixel */
"64 64 13 1 ",
"  c #08408C",
". c #08418F",
"X c #084291",
"o c #0A4CA5",
"O c #0A4DA8",
"+ c #0B4DAA",
"@ c #0B4EAA",
"# c #0B4FAC",
"$ c #0B4FAE",
"% c #0B50AE",
"& c #0B50AF",
"* c #0C51AF",
"= c #0B50B0",
/* pixels */
"        O%%%%%%O       XO%O%%%%O        O%O%%%%O        O%%%%%%O",
"        O=%%%%=O       XO=%%=%=OX       O=%==%=O        O=%%%%=%",
"        O=%%%%=O        O%%%=%=OX       O=%=%%=O        O=%%%%%O",
"        O====%=OX       O=%%%==OX       O====%=O        O====%%%",
"       XO=%=%%=OX       O=%=%%=O        O====%=OX      XO=%====%",
"       XO=%=%%%O        O=%%%%=O        O=%%=%=OX      XO=%==%%O",
"        O======O        O======O        O======OX       O======%",
"XX     XoOOOOOOoX   XX XoOOOOOOoX XXXX XoOOOOOOoX      XoOOOOOOO",
"OOOOOOOoX   XXXXoOOOOOOoX XXXX XoOOOOOOoX XX   XoOOOOOOoX       ",
"%=%====O        O======O        O======O        O=%====O        ",
"O%%%%%=OX       O=%=%%=O        O=%%%%=O       XO=%%%%=OX       ",
"%%%%=%=OX       O=%====O        O====%=O       XO=%%=%=OX       ",
"%==%%%=OX       O=%=%%=OX      XO=%=%%=O       XO====%=OX       ",
"%%%=%%=OX       O=%%%%=OX      XO=%=%%%O       XO=%%=%=OX       ",
"%======O        O====%=OX       O======O        O======O        ",
"OOOOOOOoX   XX XoOOOOOOoX      XoOOOOOOoXXXX   XoOOOOOOoX   XXX ",
" XXX   XoOOOOOOoX   XXXXoOOOOOOoX      XoOOOOOOoX XX   XoOOOOOOO",
"        O======O        O======O       XO=%====O        O======%",
"       XO=%=%%=OX       O%%%=%=OX      XO=%%%%=O       XO=%%=%%%",
"       XO=%====OX       O=%%=%=OX      XO=%%=%=O       XO=%%%==%",
"       XO=%=%%=OX       O=%====O        O====%=O       XO=%=%%%%",
"       XO=%%%%=OX       O=%%%%=O        O=%%=%=O       XO=%%%%%O",
"        O====%=O        O======O        O======O        O====%=%",
"       XoOOOOOOoX   XX XoOOOOOOoX XXXX XoOOOOOOoXXXX   XoOOOOOOO",
"OOOOOOOoX      XoOOOOOOoX XXXX XoOOOOOOoX XX   XoOOOOOOoX     XX",
"%======O       XO======O        O======O        O======O        ",
"O%%==%=OX      XO=%=%%=O        O=%%%%=O       XO%%%=%=OX       ",
"%====%=OX      XO=%====O        O====%=O       XO=%%=%=OX       ",
"%=%====O        O=%=%%=OX      XO=%=%%=O       XO=%====O        ",
"%%%%%%=O        O=%%%%=OX      XO=%=%%%O       XO=%%%%=O        ",
"%======O        O====%=OX       O======O        O======O        ",
"OOOOOOOoX XXXX XoOOOOOOoX      XoOOOOOOoXXXX   XoOOOOOOoX  XX   ",
"    XXXXoOOOOOOoX      XoOOOOOOoX   XXXXoOOOOOOoX      XoOOOOOOO",
"        O======O       XO=%====O        O======O       XO=%====%",
"        O%%%=%=OX      XO=%%%%=OX       O%%%=%=OX      XO=%%%%%%",
"        O=%%=%=OX      XO=%%=%=OX       O=%%=%=OX      XO=%%=%%%",
"        O=%====O        O====%=OX       O=%====O        O====%%%",
"        O=%%%%=O        O=%%=%=OX       O=%%%%=O        O=%%=%%%",
"        O======O        O======O        O======O        O======%",
"    XX XoOOOOOOoX XXXX XoOOOOOOoX   XX XoOOOOOOoX XXXX XoOOOOOOO",
"OOOOOOOoX XXXX XoOOOOOOoX XX   XoOOOOOOoX XXXX XoOOOOOOoX XX    ",
"%======O        O======O        O======O        O======O        ",
"%%%=%%=O        O=%%%%=O       XO=%=%%=O        O=%%%%=O        ",
"%%%====O        O====%=O       XO=%====O        O====%=O        ",
"%%%=%%=OX      XO=%=%%=O       XO=%=%%=OX      XO=%=%%=O        ",
"%%%%%%=OX      XO=%=%%%O       XO=%%%%=OX      XO=%=%%%O        ",
"%====%=OX       O======O        O====%=OX       O======O        ",
"OOOOOOOoX      XoOOOOOOoXXXX   XoOOOOOOoX      XoOOOOOOoXXXX    ",
"   XX  XoOOOOOOoX XXXX XoOOOOOOoX XXXX XoOOOOOOoX XXXX XoOOOOOOO",
"        O======O        O======O        O======O        O======%",
"        O=%%%%=O        O=%%%%=O        O=%%%%=O        O=%%%%%%",
"        O====%=O        O====%=O        O====%=O        O====%=%",
"       XO=%=%%=OX      XO=%=%%=OX      XO=%=%%=OX      XO=%====%",
"       XO=%=%%%OX      XO=%=%%%OX      XO=%=%%%OX      XO=%==%%O",
"        O======OX       O======OX       O======OX       O======%",
"XX     XoOOOOOOoX      XoOOOOOOoX      XoOOOOOOoX      XoOOOOOOO",
"OOOOOOOoX   XXXXoOOOOOOoX   XXXXoOOOOOOoX   XXXXoOOOOOOoX       ",
"%=%====O        O=%====O        O=%====O        O=%====O        ",
"O%%%=%=OX       O=%%=%=OX       O=%%=%=OX       O=%%=%=OX       ",
"%%%%===OX       O=%%===OX       O=%%===OX       O=%%===OX       ",
"%==%%%=OX       O====%=OX       O====%=OX       O====%=OX       ",
"%%%=%%=OX       O=%%%%=OX       O=%%%%=OX       O=%%%%=OX       ",
"%====%=OX       O=%=%%=OX       O=%=%%=OX       O=%=%%=OX       ",
"O%%%%O%O        O%%%%O%O        O%%%%O%O        O%%%%O%O        "
};
