/* XPM */
static char *_z2bqqun[] = {
/* columns rows colors chars-per-pixel */
"64 64 5 1 ",
"  c #0B50AF",
". c #0C51AF",
"X c #0D51AF",
"o c #0D52B0",
"O c #0E52B0",
/* pixels */
"XXXXXXXXXXXXXXXXXXXXXXXXXXXXXXXXXXXXXXXXXXXXXXXXXXXXXXXXXXXXXXXX",
"XXXXXXXXXXXXXXXXXXXXXXXXX XXXX XXXXXXXXXXXXXXXXXX XXXX XXXXXXXXX",
"XXXXXXXXXXXXXXXXXXXXXXXXXXXXXXXXXXXXXXXXXXXXXXXXXXXXXXXXXXXXXXXX",
"XXXXXXXXXXXXXXXXXXXXXXXXXXXXXXXXXXXXXXXXXXXXXXXXXXXXXXXXXXXXXXXX",
"XXXXXXXXXXXXXXXXXXXXXXXXXXXXXXXXXXXXXXXXXXXXXXXXXXXXXXXXXXXXXXXX",
"XXXXXXXXXXXXXXXXXXXXXXXXXXXXXXXXXXXXXXXXXXXXXXXXXXXXXXXXXXXXXXXX",
"XXXXXXXXX XXXX XX XXXXXXXXXXXXXXX XXXX XX XXXXXXXXXXXXXXX XXXXXX",
"XXXXXXXooXXXXXXooXXXXXXooXXXXXXooXXXXXXooXXXXXXooXXXXXXooXXXXXXX",
"XXXXXXXooXXXXXXooXXXXXXooXXXXXXooXXXXXXooXXXXXXooXXXXXXooXXXXXXX",
"X XXXXXXX XXXXXXXXXXXX XX XXXX XXXXXXXXXXXXXXX XX XXXXXXX XXXXXX",
"XXXXXXXXXXXXXXXXXXXXXXXXXXXXXXXXXXXXXXXXXXXXXXXXXXXXXXXXXXXXXXXX",
"XXXXXXXXXXXXXXXXXXXXXXXXXXXXXXXXXXXXXXXXXXXXXXXXXXXXXXXXXXXXXXXX",
"XXXXXXXXXXXXXXXXXXXXXXXXXXXXXXXXXXXXXXXXXXXXXXXXXXXXXXXXXXXXXXXX",
"XXXXXXXXXXXXXXXXXXXXXXXXXXXXXXXXXXXXXXXXXXXXXXXXXXXXXXXXXXXXXXXX",
"X XXXXXXX XXXXXXXXXXXX XXXXXXXXXX XXXX XXXXXXX XX XXXXXXX XXXXXX",
"XXXXXXXooXXXXXXooXXXXXXooXXXXXXooXXXXXXooXXXXXXooXXXXXXooXXXXXXX",
"XXXXXXXooXXXXXXooXXXXXXooXXXXXXooXXXXXXooXXXXXXooXXXXXXooXXXXXXX",
"XXXXXX XXXXXXX XX XXXXXXX XXXX XXXXXXXXXX XXXXXXXXXXXX XXXXXXX X",
"XXXXXXXXXXXXXXXXXXXXXXXXXXXXXXXXXXXXXXXXXXXXXXXXXXXXXXXXXXXXXXXX",
"XXXXXXXXXXXXXXXXXXXXXXXXXXXXXXXXXXXXXXXXXXXXXXXXXXXXXXXXXXXXXXXX",
"XXXXXXXXXXXXXXXXXXXXXXXXXXXXXXXXXXXXXXXXXXXXXXXXXXXXXXXXXXXXXXXX",
"XXXXXXXXXXXXXXXXXXXXXXXXXXXXXXXXXXXXXXXXXXXXXXXXXXXXXXXXXXXXXXXX",
"XXXXXX XXXXXXX XX XXXXXXXXXXXXXXX XXXX XX XXXXXXXXXXXX XXXXXXX X",
"XXXXXXXooXXXXXXooXXXXXXooXXXXXXooXXXXXXooXXXXXXooXXXXXXooXXXXXXX",
"XXXXXXXooXXXXXXooXXXXXXooXXXXXXooXXXXXXooXXXXXXooXXXXXXooXXXXXXX",
"XXXXXX XXXXXXXXXXXXXXX XX XXXX XXXXXXXXXXXXXXX XX XXXX XXXXXXXXX",
"XXXXXXXXXXXXXXXXXXXXXXXXXXXXXXXXXXXXXXXXXXXXXXXXXXXXXXXXXXXXXXXX",
"XXXXXXXXXXXXXXXXXXXXXXXXXXXXXXXXXXXXXXXXXXXXXXXXXXXXXXXXXXXXXXXX",
"XXXXXXXXXXXXXXXXXXXXXXXXXXXXXXXXXXXXXXXXXXXXXXXXXXXXXXXXXXXXXXXX",
"XXXXXXXXXXXXXXXXXXXXXXXXXXXXXXXXXXXXXXXXXXXXXXXXXXXXXXXXXXXXXXXX",
"XXXXXXXXX XXXX XXXXXXX XXXXXXXXXX XXXX XXXXXXX XXXXXXXXXX XXXXXX",
"XXXXXXXooXXXXXXooXXXXXXooXXXXXXooXXXXXXooXXXXXXooXXXXXXooXXXXXXX",
"XXXXXXXooXXXXXXooXXXXXXooXXXXXXooXXXXXXooXXXXXXooXXXXXXooXXXXXXX",
"X XXXXXXX XXXX XXXXXXXXXX XXXXXXX XXXXXXX XXXX XXXXXXXXXX XXXXXX",
"XXXXXXXXXXXXXXXXXXXXXXXXXXXXXXXXXXXXXXXXXXXXXXXXXXXXXXXXXXXXXXXX",
"XXXXXXXXXXXXXXXXXXXXXXXXXXXXXXXXXXXXXXXXXXXXXXXXXXXXXXXXXXXXXXXX",
"XXXXXXXXXXXXXXXXXXXXXXXXXXXXXXXXXXXXXXXXXXXXXXXXXXXXXXXXXXXXXXXX",
"XXXXXXXXXXXXXXXXXXXXXXXXXXXXXXXXXXXXXXXXXXXXXXXXXXXXXXXXXXXXXXXX",
"X XXXXXXXXXXXXXXX XXXX XX XXXXXXX XXXXXXXXXXXXXXX XXXX XX XXXXXX",
"XXXXXXXooXXXXXXooXXXXXXooXXXXXXooXXXXXXooXXXXXXooXXXXXXooXXXXXXX",
"XXXXXXXooXXXXXXooXXXXXXooXXXXXXooXXXXXXooXXXXXXooXXXXXXooXXXXXXX",
"XXXXXX XX XXXX XXXXXXXXXXXXXXX XXXXXXX XX XXXX XXXXXXXXXXXXXXX X",
"XXXXXXXXXXXXXXXXXXXXXXXXXXXXXXXXXXXXXXXXXXXXXXXXXXXXXXXXXXXXXXXX",
"XXXXXXXXXXXXXXXXXXXXXXXXXXXXXXXXXXXXXXXXXXXXXXXXXXXXXXXXXXXXXXXX",
"XXXXXXXXXXXXXXXXXXXXXXXXXXXXXXXXXXXXXXXXXXXXXXXXXXXXXXXXXXXXXXXX",
"XXXXXXXXXXXXXXXXXXXXXXXXXXXXXXXXXXXXXXXXXXXXXXXXXXXXXXXXXXXXXXXX",
"XXXXXX XXXXXXXXXX XXXX XXXXXXX XXXXXXX XXXXXXXXXX XXXX XXXXXXX X",
"XXXXXXXooXXXXXXooXXXXXXooXXXXXXooXXXXXXooXXXXXXooXXXXXXooXXXXXXX",
"XXXXXXXooXXXXXXooXXXXXXooXXXXXXooXXXXXXooXXXXXXooXXXXXXooXXXXXXX",
"XXXXXX XXXXXXXXXX XXXX XXXXXXXXXX XXXX XXXXXXXXXX XXXX XXXXXXXXX",
"XXXXXXXXXXXXXXXXXXXXXXXXXXXXXXXXXXXXXXXXXXXXXXXXXXXXXXXXXXXXXXXX",
"XXXXXXXXXXXXXXXXXXXXXXXXXXXXXXXXXXXXXXXXXXXXXXXXXXXXXXXXXXXXXXXX",
"XXXXXXXXXXXXXXXXXXXXXXXXXXXXXXXXXXXXXXXXXXXXXXXXXXXXXXXXXXXXXXXX",
"XXXXXXXXXXXXXXXXXXXXXXXXXXXXXXXXXXXXXXXXXXXXXXXXXXXXXXXXXXXXXXXX",
"XXXXXXXXX XXXX XXXXXXXXXX XXXX XXXXXXXXXX XXXX XXXXXXXXXX XXXX X",
"XXXXXXXooXXXXXXooXXXXXXooXXXXXXooXXXXXXooXXXXXXooXXXXXXooXXXXXXX",
"XXXXXXXooXXXXXXooXXXXXXooXXXXXXooXXXXXXooXXXXXXooXXXXXXooXXXXXXX",
"X XXXXXXX XXXXXXX XXXXXXX XXXXXXX XXXXXXX XXXXXXX XXXXXXX XXXXXX",
"XXXXXXXXXXXXXXXXXXXXXXXXXXXXXXXXXXXXXXXXXXXXXXXXXXXXXXXXXXXXXXXX",
"XXXXXXXXXXXXXXXXXXXXXXXXXXXXXXXXXXXXXXXXXXXXXXXXXXXXXXXXXXXXXXXX",
"XXXXXXXXXXXXXXXXXXXXXXXXXXXXXXXXXXXXXXXXXXXXXXXXXXXXXXXXXXXXXXXX",
"XXXXXXXXXXXXXXXXXXXXXXXXXXXXXXXXXXXXXXXXXXXXXXXXXXXXXXXXXXXXXXXX",
"XXXXXX XXXXXXXXXXXXXXXXXXXXXXXXXXXXXXXXXXXXXXXXXXXXXXXXXXXXXXXXX",
"XXXXXXXXXXXXXXXXXXXXXXXXXXXXXXXXXXXXXXXXXXXXXXXXXXXXXXXXXXXXXXXX"
};
