/* XPM */
static char *bnoy0xzj[] = {
/* columns rows colors chars-per-pixel */
"64 64 5 1 ",
"  c #141414",
". c #151515",
"X c #181818",
"o c #191919",
"O c #1A1A1A",
/* pixels */
"        XXXXXXXX        XXXXXXXX        XXXXXXXX        XXXXXXXX",
"        XXXXXXXX        XXXXXXXX        XXXXXXXX        XXXXXXXX",
"        XXXXXXXX        XXXXXXXX        XXXXXXXX        XXXXXXXX",
"        XXXXXXXX        XXXXXXXX        XXXXXXXX        XXXXXXXX",
"        XXXXXXXX        XXXXXXXX        XXXXXXXX        XXXXXXXX",
"        XXXXXXXX        XXXXXXXX        XXXXXXXX        XXXXXXXX",
"        XXXXXXXX        XXXXXXXX        XXXXXXXX        XXXXXXXX",
"        XXXXXXXX        XXXXXXXX        XXXXXXXX        XXXXXXXX",
"XXXXXXXX        XXXXXXXX        XXXXXXXX        XXXXXXXX        ",
"XXXXXXXX        XXXXXXXX        XXXXXXXX        XXXXXXXX        ",
"XXXXXXXX        XXXXXXXX        XXXXXXXX        XXXXXXXX        ",
"XXXXXXXX        XXXXXXXX        XXXXXXXX        XXXXXXXX        ",
"XXXXXXXX        XXXXXXXX        XXXXXXXX        XXXXXXXX        ",
"XXXXXXXX        XXXXXXXX        XXXXXXXX        XXXXXXXX        ",
"XXXXXXXX        XXXXXXXX        XXXXXXXX        XXXXXXXX        ",
"XXXXXXXX        XXXXXXXX        XXXXXXXX        XXXXXXXX        ",
"        XXXXXXXX        XXXXXXXX        XXXXXXXX        XXXXXXXX",
"        XXXXXXXX        XXXXXXXX        XXXXXXXX        XXXXXXXX",
"        XXXXXXXX        XXXXXXXX        XXXXXXXX        XXXXXXXX",
"        XXXXXXXX        XXXXXXXX        XXXXXXXX        XXXXXXXX",
"        XXXXXXXX        XXXXXXXX        XXXXXXXX        XXXXXXXX",
"        XXXXXXXX        XXXXXXXX        XXXXXXXX        XXXXXXXX",
"        XXXXXXXX        XXXXXXXX        XXXXXXXX        XXXXXXXX",
"        XXXXXXXX        XXXXXXXX        XXXXXXXX        XXXXXXXX",
"XXXXXXXX        XXXXXXXX        XXXXXXXX        XXXXXXXX        ",
"XXXXXXXX        XXXXXXXX        XXXXXXXX        XXXXXXXX        ",
"XXXXXXXX        XXXXXXXX        XXXXXXXX        XXXXXXXX        ",
"XXXXXXXX        XXXXXXXX        XXXXXXXX        XXXXXXXX        ",
"XXXXXXXX        XXXXXXXX        XXXXXXXX        XXXXXXXX        ",
"XXXXXXXX        XXXXXXXX        XXXXXXXX        XXXXXXXX        ",
"XXXXXXXX        XXXXXXXX        XXXXXXXX        XXXXXXXX        ",
"XXXXXXXX        XXXXXXXX        XXXXXXXX        XXXXXXXX        ",
"        XXXXXXXX        XXXXXXXX        XXXXXXXX        XXXXXXXX",
"        XXXXXXXX        XXXXXXXX        XXXXXXXX        XXXXXXXX",
"        XXXXXXXX        XXXXXXXX        XXXXXXXX        XXXXXXXX",
"        XXXXXXXX        XXXXXXXX        XXXXXXXX        XXXXXXXX",
"        XXXXXXXX        XXXXXXXX        XXXXXXXX        XXXXXXXX",
"        XXXXXXXX        XXXXXXXX        XXXXXXXX        XXXXXXXX",
"        XXXXXXXX        XXXXXXXX        XXXXXXXX        XXXXXXXX",
"        XXXXXXXX        XXXXXXXX        XXXXXXXX        XXXXXXXX",
"XXXXXXXX        XXXXXXXX        XXXXXXXX        XXXXXXXX        ",
"XXXXXXXX        XXXXXXXX        XXXXXXXX        XXXXXXXX        ",
"XXXXXXXX        XXXXXXXX        XXXXXXXX        XXXXXXXX        ",
"XXXXXXXX        XXXXXXXX        XXXXXXXX        XXXXXXXX        ",
"XXXXXXXX        XXXXXXXX        XXXXXXXX        XXXXXXXX        ",
"XXXXXXXX        XXXXXXXX        XXXXXXXX        XXXXXXXX        ",
"XXXXXXXX        XXXXXXXX        XXXXXXXX        XXXXXXXX        ",
"XXXXXXXX        XXXXXXXX        XXXXXXXX        XXXXXXXX        ",
"        XXXXXXXX        XXXXXXXX        XXXXXXXX        XXXXXXXX",
"        XXXXXXXX        XXXXXXXX        XXXXXXXX        XXXXXXXX",
"        XXXXXXXX        XXXXXXXX        XXXXXXXX        XXXXXXXX",
"        XXXXXXXX        XXXXXXXX        XXXXXXXX        XXXXXXXX",
"        XXXXXXXX        XXXXXXXX        XXXXXXXX        XXXXXXXX",
"        XXXXXXXX        XXXXXXXX        XXXXXXXX        XXXXXXXX",
"        XXXXXXXX        XXXXXXXX        XXXXXXXX        XXXXXXXX",
"        XXXXXXXX        XXXXXXXX        XXXXXXXX        XXXXXXXX",
"XXXXXXXX        XXXXXXXX        XXXXXXXX        XXXXXXXX        ",
"XXXXXXXX        XXXXXXXX        XXXXXXXX        XXXXXXXX        ",
"XXXXXXXX        XXXXXXXX        XXXXXXXX        XXXXXXXX        ",
"XXXXXXXX        XXXXXXXX        XXXXXXXX        XXXXXXXX        ",
"XXXXXXXX        XXXXXXXX        XXXXXXXX        XXXXXXXX        ",
"XXXXXXXX        XXXXXXXX        XXXXXXXX        XXXXXXXX        ",
"XXXXXXXX        XXXXXXXX        XXXXXXXX        XXXXXXXX        ",
"XXXXXXXX        XXXXXXXX        XXXXXXXX        XXXXXXXX        "
};
