/* XPM */
static char *zj1vnlam[] = {
/* columns rows colors chars-per-pixel */
"64 64 12 1 ",
"  c #8C0837",
". c #8F0838",
"X c #910839",
"o c #A50A41",
"O c #A80A42",
"+ c #AA0B43",
"@ c #AC0B44",
"# c #AE0B44",
"$ c #AE0B45",
"% c #AF0B45",
"& c #AF0C46",
"* c #B00B45",
/* pixels */
"       .OOOOOOOOX      .OOOOOOOO.      .OOOOOOOO.      .OOOOOOOO",
"       .O**O***OX      .OO*****O.      .OOOO***OX      .O*OO***O",
"       .O******OX      .OOO****O.      .O*OO*O*OX      .O******O",
"       .O******O.      .O*O****O.      .O******OX      .O******O",
"       .O***OO*O.      .O*O****O.      XO******O.      .O****OOO",
"       .O*O*OOOO.      .O*OO***O.      XO*****OO.      .O****OOO",
"       .O******O.      .O******O.      XO******O.      .O*****OO",
".......XoOOOOOOoX......XoOOOOOOoX.....XXoOOOOOOoX......XoOOOOOOO",
"OOOOOOOoXXXX...XoOOOOOOoXX.....XoOOOOOOoX......XoOOOOOOoXXXX....",
"OOO****OX      .O******OX      .O******O.      .O*O****OX       ",
"O*OOOO*O.      .O****O*OX      .O***OO*O.      .O*OO*O*O.       ",
"O****O*O.      .O******OX      .O******O.      .O*OO*O*O.       ",
"O******O.      .O*O*OO*O.      .O***OO*O.      .O******O.       ",
"O******O.      .O*O*OO*O.      .O*O*OOOO.      .O*O****O.       ",
"O******O.      .O****O*O.      .O******O.      XO******O.       ",
"OOOOOOOoX......XoOOOOOOoX......XoOOOOOOoX...XXXXoOOOOOOoX.......",
".......XoOOOOOOoXXXX...XoOOOOOOoX......XoOOOOOOoX......XoOOOOOOO",
"       .O******OX      .O******O.      .O*O****O.      .O******O",
"       .O****O*O.      .OOOO*O*O.      .O*OO*O*O.      .O******O",
"       .O******O.      .O*OO***O.      .O*OO*O*O.      .O******O",
"       .O*O*OO*O.      .O******O.      XO******O.      .O*O****O",
"       .O*O*OO*O.      .O*OO***O.      XO*O****O.      .O*OOOO*O",
"       XO****O*O.      .O******O.      XO******O.      XO****OOO",
"....XXXXoOOOOOOoX......XoOOOOOOoX.....XXoOOOOOOoX...XXXXoOOOOOOO",
"OOOOOOOoX......XoOOOOOOoXX.....XoOOOOOOoX......XoOOOOOOoX.......",
"OO*****O.      .O******OX      .O******O.      .O******O.       ",
"OOO****O.      .O****O*OX      .O***OO*O.      .OOOO*O*O.       ",
"OOO****O.      .O******OX      .O******O.      .O*OO***O.       ",
"O******O.      XO*O*OO*O.      .O***OO*O.      .O******O.       ",
"O*O****O.      XO*O*OO*O.      .O*O*OOOO.      .O*OO***O.       ",
"O****O*O.      XO****O*O.      .O******O.      XO******O.       ",
"OOOOOOOoX.....XXoOOOOOOoX......XoOOOOOOoX...XXXXoOOOOOOoX....XXX",
".XXX...XoOOOOOOoX......XoOOOOOOoXXXX...XoOOOOOOoX......XoOOOOOOO",
"       .O******O.      .O*O****OX      .O******O.      .O*O****O",
"       .OOOO*O*O.      .O*OO*O*O.      .OOOO*O*O.      .O*OO***O",
"       .O*OO***O.      .O*OO*O*O.      .O*OO***O.      .O*OO***O",
"       .O******O.      XO******O.      .O******O.      XO*****OO",
"       .O*OO***O.      XO*O****O.      .O*OO***O.      XO*O****O",
"       .O******O.      XO******O.      .O******O.      XO******O",
".......XoOOOOOOoX.....XXoOOOOOOoX......XoOOOOOOoX.....XXoOOOOOOO",
"OOOOOOOoXX.....XoOOOOOOoX......XoOOOOOOoXX.....XoOOOOOOoX.......",
"O******OX      .O******O.      .O******OX      .O******O.       ",
"O****O*OX      .O***OO*O.      .O****O*OX      .O***OO*O.       ",
"OO*****OX      .O******O.      .O******OX      .O******O.       ",
"O***OO*O.      .O***OO*O.      .O*O*OO*O.      .O***OO*O.       ",
"O***OO*O.      .O*O*OOOO.      .O*O*OO*O.      .O*O*OOOO.       ",
"O****O*O.      .O******O.      XO****O*O.      .O******O.       ",
"OOOOOOOoX......XoOOOOOOoX...XXXXoOOOOOOoX......XoOOOOOOoX...XXX.",
"XXX....XoOOOOOOoXX.....XoOOOOOOoXX.....XoOOOOOOoXX.....XoOOOOOOO",
"       .O******OX      .O******OX      .O******OX      .O*O****O",
"       .O***OO*OX      .O***OO*OX      .O***OO*OX      .O****O*O",
"       .O******OX      .O******OX      .O******OX      .O******O",
"       .O***OO*O.      .O***OO*O.      .O***OO*O.      .O****OOO",
"       .O*O*OOOO.      .O*O*OOOO.      .O*O*OOOO.      .O****OOO",
"       .O******O.      .O******O.      .O******O.      .O*****OO",
".......XoOOOOOOoX......XoOOOOOOoX......XoOOOOOOoX......XoOOOOOOO",
"OOOOOOOoX.XX...XoOOOOOOoX.XX...XoOOOOOOoX.XX...XoOOOOOOoX.XX....",
"OOO****O.      .O*O****O.      .O*O****O.      .O*O****O.       ",
"O*OO*O*O.      .O*OO*O*O.      .O*OO*O*O.      .O*OO*O*O.       ",
"O******O.      .O*OO***O.      .O*OO***O.      .O*OO***O.       ",
"O******O.      .O******O.      .O******O.      .O******O.       ",
"O******O.      .O******O.      .O******O.      .O******O.       ",
"O******O.      .O******O.      .O******O.      .O******O.       ",
"OOOOOOOO.      .OOOOOOOO.      .OOOOOOOO.      .OOOOOOOO.       "
};
